# xmcd
#
# Track frame offsets: 
#        150
#        20761
#        49915
#        69762
#        84969
#        90924
#        92412
#        109692
#        128019
#        142575
#        150137
#
# Disc length: 2280 seconds
#
# Revision: 1
# Processed by: cddbd v1.5.2PL0 Copyright (c) Steve Scherf et al.
# Submitted via: ExactAudioCopyFreeDBPlugin 1.0
#
DISCID=6c08e60b
DTITLE=Marvin Gaye - I Want You_2016
DYEAR=1976
DGENRE=R&B
TTITLE0=I Want You_vocal
TTITLE1=Come Live w- Me Angel
TTITLE2=After the Dance_instrumnt
TTITLE3=Feel All My Love Inside
TTITLE4=I Wanna B Where U Are
TTITLE5=I Want U_intro jam
TTITLE6=All the Way 'Round
TTITLE7=Since I Had You
TTITLE8=Soon I'll Be Loving U Again
TTITLE9=I Want U_Jam
TTITLE10=After the Dance_vocal
EXTD=
EXTT0=
EXTT1=
EXTT2=Instrumental
EXTT3=
EXTT4=
EXTT5=
EXTT6=
EXTT7=
EXTT8=
EXTT9=
EXTT10=
PLAYORDER=
